<?xml version="1.0" standalone="no"?>
<!DOCTYPE svg PUBLIC "-//W3C//DTD SVG 20010904//EN"
 "http://www.w3.org/TR/2001/REC-SVG-20010904/DTD/svg10.dtd">
<svg version="1.0" xmlns="http://www.w3.org/2000/svg"
 width="900.000000pt" height="900.000000pt" viewBox="0 0 900.000000 900.000000"
 preserveAspectRatio="xMidYMid meet">

<g transform="translate(0.000000,900.000000) scale(0.100000,-0.100000)"
fill="#000000" stroke="none">
<path d="M2455 8654 c-241 -28 -394 -90 -527 -213 -96 -88 -168 -189 -279
-384 -133 -236 -192 -323 -278 -408 -120 -119 -249 -185 -417 -212 l-74 -12 0
-240 c0 -769 22 -3160 30 -3270 18 -223 64 -395 177 -654 331 -764 986 -1428
2117 -2146 348 -220 1270 -765 1296 -765 26 0 948 545 1296 765 889 565 1463
1077 1838 1640 234 351 384 698 443 1020 16 94 27 781 38 2540 l7 1110 -75 12
c-169 27 -298 92 -418 212 -86 85 -145 172 -278 408 -51 90 -118 198 -150 240
-167 226 -363 329 -676 358 l-70 7 -85 -206 c-46 -113 -88 -206 -92 -206 -5 0
-31 11 -58 25 -164 83 -506 203 -743 260 -151 36 -380 76 -562 97 -146 17
-684 17 -830 0 -473 -55 -876 -163 -1272 -341 -50 -23 -93 -41 -95 -41 -2 0
-42 92 -88 205 l-84 205 -31 -1 c-16 -1 -43 -4 -60 -5z m135 -191 c35 -87 74
-181 86 -210 l23 -51 128 57 c408 185 830 295 1308 342 66 7 230 12 365 12
135 0 299 -5 365 -12 478 -47 900 -157 1308 -342 l128 -57 23 51 c12 29 51
123 87 211 l64 159 81 -6 c215 -15 393 -96 535 -244 79 -83 141 -173 244 -358
103 -185 175 -293 243 -366 107 -116 255 -201 407 -234 44 -10 86 -19 93 -21
10 -3 11 -133 6 -641 -3 -351 -10 -1133 -15 -1738 -9 -1182 -10 -1200 -64
-1402 -30 -114 -118 -339 -183 -468 -368 -738 -1016 -1359 -2157 -2072 -341
-212 -1143 -683 -1165 -683 -22 0 -828 473 -1165 683 -1142 713 -1788 1334
-2157 2072 -65 129 -153 354 -183 468 -54 202 -55 220 -64 1402 -5 605 -12
1387 -15 1738 -5 508 -4 638 6 641 7 2 49 11 93 21 152 33 300 118 407 234 68
73 140 181 243 366 143 257 243 382 375 470 121 80 281 130 430 134 l56 1 64
-157z"/>
<path d="M2350 8515 c-149 -30 -274 -96 -372 -196 -70 -72 -131 -161 -233
-344 -103 -183 -155 -265 -223 -348 -110 -135 -291 -253 -451 -292 l-71 -17 6
-652 c3 -358 10 -1123 15 -1701 5 -605 13 -1082 19 -1125 33 -244 155 -564
321 -846 413 -702 1083 -1287 2334 -2036 298 -179 796 -468 805 -468 9 0 507
289 805 468 1251 749 1921 1334 2334 2036 166 282 288 602 321 846 6 43 14
520 19 1125 5 578 12 1343 15 1701 l6 652 -71 17 c-160 39 -341 157 -451 292
-68 83 -120 165 -223 348 -176 315 -286 431 -473 502 -62 23 -192 53 -231 53
-13 0 -39 -54 -106 -217 -48 -120 -91 -222 -95 -226 -4 -5 -43 9 -86 31 -853
428 -1911 526 -2841 262 -246 -69 -482 -160 -687 -262 -43 -22 -82 -36 -86
-31 -4 4 -47 106 -95 226 -101 246 -82 227 -205 202z m2590 -170 c369 -44 718
-141 1049 -289 143 -64 291 -143 291 -156 0 -4 -43 -105 -96 -223 l-96 -215
-137 69 c-313 157 -615 252 -991 312 -118 19 -176 22 -460 21 -282 0 -343 -3
-460 -21 -370 -58 -688 -160 -1004 -321 -72 -36 -131 -61 -133 -56 -2 5 -46
103 -98 218 -66 145 -92 213 -85 221 17 21 310 161 455 218 301 118 626 197
935 226 63 6 133 13 155 15 93 9 548 -4 675 -19z m-570 -631 c0 -3 -11 -19
-24 -35 -13 -16 -48 -72 -77 -125 -58 -103 -75 -118 -149 -126 l-46 -5 63 121
c78 151 103 176 178 176 30 0 55 -3 55 -6z m107 -36 c-19 -24 -56 -78 -82
-121 -53 -88 -71 -103 -134 -113 l-45 -7 20 29 c11 16 35 56 53 89 18 33 51
84 72 113 39 52 40 52 95 52 l55 0 -34 -42z m203 36 c0 -3 -16 -26 -37 -50
-20 -25 -57 -75 -82 -112 -54 -79 -97 -105 -165 -100 l-46 3 61 95 c34 52 77
112 97 133 35 36 39 37 104 37 37 0 68 -3 68 -6z m-489 -36 c-12 -18 -46 -81
-77 -139 -56 -109 -65 -118 -136 -135 l-27 -6 50 113 c62 142 92 182 145 190
69 11 67 11 45 -23z m654 23 c19 -8 19 -8 -3 -20 -12 -6 -55 -53 -96 -104 -90
-114 -96 -118 -150 -124 -80 -9 -81 2 -11 100 108 152 114 157 182 156 32 0
67 -4 78 -8z m-775 -17 c0 -3 -9 -19 -21 -35 -11 -16 -39 -71 -60 -122 -49
-113 -70 -135 -143 -152 l-56 -13 14 26 c7 15 21 52 31 82 21 64 80 186 95
195 23 14 140 30 140 19z m957 -7 c11 -7 -179 -207 -215 -226 -16 -9 -43 -11
-83 -6 l-59 7 47 61 c26 34 72 88 103 121 l55 58 71 -4 c39 -3 75 -8 81 -11z
m-1157 -79 c-16 -35 -44 -101 -61 -147 -29 -77 -34 -84 -73 -101 -22 -10 -54
-22 -70 -26 -27 -6 -28 -6 -16 16 6 12 23 61 37 108 13 47 35 107 49 133 24
49 28 51 119 72 44 10 45 7 15 -55z m1300 45 c3 -3 -4 -9 -15 -15 -11 -7 -63
-53 -117 -105 l-96 -93 -57 0 -56 0 83 90 c78 86 113 116 148 132 15 6 100 -1
110 -9z m144 -32 l48 -17 -43 -29 c-24 -16 -66 -49 -94 -75 -102 -95 -133
-106 -226 -80 l-36 10 66 69 c103 109 149 141 196 140 22 0 62 -8 89 -18z
m-1597 -28 c-8 -15 -29 -73 -46 -127 -36 -118 -52 -143 -96 -162 -46 -19 -58
-18 -47 4 5 9 17 51 27 92 31 129 53 178 88 197 33 17 80 32 85 27 2 -1 -3
-15 -11 -31z m-136 -45 c-10 -24 -26 -77 -36 -118 -34 -143 -51 -166 -143
-194 -20 -7 -21 -5 -13 16 5 14 17 64 26 114 9 49 26 110 37 136 18 42 27 50
72 67 75 29 78 28 57 -21z m1884 25 l49 -16 -24 -16 c-13 -9 -51 -36 -83 -61
-158 -120 -161 -121 -240 -97 l-37 12 86 75 c97 85 150 120 180 120 11 0 42
-7 69 -17z m-2039 -86 c-8 -24 -22 -84 -31 -133 -10 -49 -23 -101 -31 -115
-12 -24 -99 -77 -109 -68 -6 7 24 200 40 255 8 28 21 57 29 63 16 14 109 51
114 46 2 -2 -3 -23 -12 -48z m2150 42 c24 -6 44 -14 44 -18 0 -3 -18 -14 -39
-24 -21 -10 -74 -46 -117 -78 -88 -67 -107 -74 -162 -64 l-37 7 25 17 c13 9
49 37 80 62 48 41 147 109 158 109 2 0 23 -5 48 -11z m163 -65 l55 -25 -50
-23 c-27 -13 -85 -46 -128 -75 -44 -28 -89 -54 -101 -57 -24 -6 -141 35 -128
45 50 41 166 123 198 140 52 27 88 26 154 -5z m-2464 -38 c-7 -24 -18 -85 -24
-136 -14 -112 -29 -144 -82 -171 -38 -19 -40 -19 -35 -2 3 10 10 65 15 123 14
144 26 179 76 207 59 33 65 31 50 -21z m1555 -1 c401 -46 805 -192 1151 -417
167 -109 239 -166 382 -300 165 -156 271 -280 393 -463 37 -55 76 -113 86
-128 27 -39 152 -290 178 -357 143 -367 200 -662 201 -1036 0 -548 -153 -1059
-451 -1505 -384 -575 -943 -969 -1617 -1139 -65 -16 -121 -30 -125 -30 -5 0
-8 14 -8 30 0 112 -140 210 -299 210 -76 0 -122 -14 -175 -55 -44 -34 -44 -34
-63 -13 -33 37 -95 61 -169 66 -163 10 -308 -77 -322 -193 -2 -25 -8 -45 -12
-45 -22 0 -226 53 -305 78 -340 112 -608 257 -890 483 -457 367 -791 896 -929
1473 -24 99 -32 143 -58 296 -17 105 -17 579 0 690 74 470 198 798 439 1160
82 125 98 146 204 276 106 131 327 328 509 455 536 376 1208 541 1880 464z
m1043 -26 l41 -22 -46 -18 c-25 -10 -84 -41 -130 -68 -90 -54 -126 -62 -183
-37 l-30 13 35 18 c19 10 59 35 90 56 64 43 136 78 163 79 10 0 37 -10 60 -21z
m-2713 8 c0 -1 -5 -18 -10 -37 -6 -19 -15 -84 -20 -144 -10 -119 -20 -142 -72
-173 l-34 -20 3 91 c5 128 21 221 41 239 28 24 92 55 92 44z m2846 -78 c19
-11 34 -24 34 -28 0 -4 -19 -14 -42 -20 -24 -7 -79 -32 -123 -56 -109 -58
-116 -60 -174 -34 -47 20 -66 39 -40 39 6 0 49 23 95 50 139 85 180 93 250 49z
m-2980 -16 c-3 -16 -9 -77 -12 -138 -3 -60 -10 -123 -16 -138 -9 -24 -84 -87
-103 -87 -10 0 0 290 10 313 7 17 100 77 119 77 4 0 6 -12 2 -27z m3104 -59
c44 -29 44 -39 0 -47 -16 -4 -74 -27 -128 -52 -111 -51 -138 -54 -192 -24
l-37 21 86 45 c173 91 208 98 271 57z m-3258 -156 c-4 -164 -9 -180 -60 -216
l-28 -21 -2 157 c-1 86 1 163 6 170 9 14 73 62 82 62 3 0 4 -69 2 -152z m3384
70 c54 -37 66 -58 34 -58 -11 0 -65 -16 -118 -36 -150 -57 -156 -58 -199 -35
-83 43 -83 44 -7 81 87 41 193 80 220 80 12 0 43 -15 70 -32z m-3492 -300 c-3
-15 -22 -42 -42 -60 l-37 -32 -8 85 c-5 46 -9 117 -10 157 l-2 73 45 42 45 42
7 -140 c4 -77 5 -152 2 -167z m3594 218 c15 -8 35 -23 45 -34 18 -20 18 -20
-15 -27 -18 -3 -83 -22 -145 -42 -72 -23 -120 -33 -137 -29 -32 8 -88 55 -65
56 8 0 44 12 80 27 65 27 173 61 197 62 7 1 25 -5 40 -13z m-3694 -252 c8 -38
-7 -80 -42 -116 -42 -45 -41 -47 -67 125 -21 142 -15 168 44 213 l46 36 6
-114 c4 -63 10 -128 13 -144z m3841 135 c25 -23 45 -45 45 -49 0 -4 -24 -10
-53 -13 -30 -3 -85 -14 -123 -25 -124 -36 -125 -36 -179 0 -54 37 -67 58 -36
58 11 0 44 9 73 21 75 29 147 48 191 48 31 1 46 -7 82 -40z m-3959 -176 c19
-119 15 -139 -47 -199 l-39 -38 0 29 c0 17 -7 55 -15 85 -9 30 -19 86 -25 125
-11 84 1 113 63 164 l42 34 2 -49 c1 -27 10 -95 19 -151z m4087 55 l52 -53
-70 -7 c-38 -3 -99 -13 -135 -22 -99 -24 -122 -21 -172 20 -23 20 -44 39 -45
43 -2 5 173 50 252 65 54 10 67 5 118 -46z m-4209 -164 c24 -93 21 -146 -10
-184 -15 -17 -28 -29 -30 -27 -5 5 -51 167 -57 202 -20 108 -21 101 25 151
l43 47 6 -64 c3 -35 14 -92 23 -125z m4323 41 c24 -25 43 -49 43 -53 0 -5 -29
-9 -63 -10 -35 -1 -88 -6 -117 -12 -29 -5 -74 -10 -99 -10 -42 0 -51 5 -89 43
l-43 44 93 20 c51 12 124 21 162 22 l69 1 44 -45z m-4447 3 c0 -18 14 -83 31
-144 18 -64 29 -122 26 -135 -9 -35 -56 -95 -60 -78 -3 8 -19 59 -37 113 -17
55 -34 122 -37 150 -4 46 -2 55 27 89 39 46 50 47 50 5z m-54 -251 c19 -59 34
-115 34 -125 0 -10 -12 -37 -27 -59 l-27 -42 -44 117 c-24 64 -46 137 -48 162
-5 40 -2 49 28 84 l33 40 8 -35 c5 -19 24 -82 43 -142z m4562 159 c22 -12 72
-66 72 -79 0 -2 -14 -1 -31 1 -18 3 -84 -1 -148 -8 -102 -11 -121 -11 -147 3
-29 15 -71 54 -63 60 7 6 211 34 252 36 21 0 50 -5 65 -13z m-4683 -156 c4
-19 23 -73 41 -119 19 -47 34 -99 34 -116 0 -36 -60 -139 -68 -115 -2 8 -24
59 -48 113 -67 148 -68 183 -6 265 28 37 34 33 47 -28z m4778 40 c15 -12 35
-33 45 -48 l20 -27 -163 0 -164 0 -30 29 c-17 17 -31 33 -31 37 0 10 129 26
221 28 63 1 81 -3 102 -19z m97 -119 c10 -14 26 -38 35 -54 l18 -30 -48 6
c-26 4 -97 7 -158 7 l-109 0 -42 43 -41 42 50 6 c28 4 101 6 163 5 107 -1 114
-2 132 -25z m-4928 -176 c14 -27 31 -68 38 -91 11 -38 10 -45 -17 -99 l-30
-58 -55 109 c-76 150 -85 181 -63 225 10 19 27 47 39 62 l20 28 22 -63 c11
-35 32 -85 46 -113z m4960 75 c29 -8 44 -21 64 -56 15 -25 24 -47 21 -50 -2
-3 -33 0 -68 6 -35 5 -98 10 -139 10 -41 1 -85 6 -97 13 -19 10 -73 73 -73 84
0 8 260 2 292 -7z m-5034 -234 c24 -45 42 -93 42 -110 -1 -28 -39 -115 -40
-91 0 6 -24 51 -53 100 -30 50 -62 112 -72 138 -19 50 -16 67 22 126 15 23 15
23 37 -30 12 -30 41 -90 64 -133z m5063 113 c46 -7 73 -17 87 -32 21 -22 56
-96 50 -103 -2 -2 -20 1 -39 6 -19 5 -80 14 -137 19 -56 6 -115 17 -130 25
-21 11 -72 79 -72 97 0 7 175 -2 241 -12z m-5132 -218 c61 -104 66 -131 35
-199 l-19 -43 -64 97 c-35 53 -72 117 -83 141 l-19 44 31 67 32 67 15 -40 c9
-22 41 -82 72 -134z m5096 90 c117 -12 168 -25 191 -49 20 -19 58 -101 51
-108 -3 -3 -29 2 -58 10 -30 8 -89 20 -132 25 -101 14 -127 29 -161 91 -25 46
-26 51 -10 46 11 -3 64 -10 119 -15z m-5241 -105 c3 -14 33 -65 65 -113 83
-125 86 -133 71 -188 -7 -25 -15 -45 -19 -45 -17 1 -171 239 -171 265 0 29 29
105 40 105 4 0 11 -11 14 -24z m5301 -36 c44 -6 108 -20 141 -31 58 -19 63
-23 83 -69 32 -75 30 -82 -21 -64 -24 8 -86 24 -138 35 -52 11 -104 26 -117
34 -23 15 -44 50 -58 93 -6 20 -4 23 12 19 10 -3 54 -11 98 -17z m-5257 -243
c44 -58 52 -75 52 -110 -1 -37 -27 -120 -29 -91 -1 6 -33 51 -71 99 -97 119
-115 156 -99 203 25 78 27 79 63 20 17 -29 55 -84 84 -121z m5335 93 c55 -12
118 -30 142 -40 39 -17 45 -24 59 -71 9 -29 14 -54 12 -56 -2 -2 -23 5 -47 15
-24 10 -75 26 -114 36 -111 26 -142 43 -165 91 -25 51 -25 58 -2 51 9 -3 61
-15 115 -26z m-5488 -81 c4 -11 38 -59 77 -107 96 -119 104 -136 87 -195 l-14
-47 -80 90 c-44 50 -91 109 -104 131 l-24 41 18 54 c20 58 30 66 40 33z m5525
-49 c166 -42 198 -65 214 -153 l7 -38 -48 24 c-26 14 -82 35 -123 47 -106 32
-129 45 -151 93 -24 55 -25 71 -1 58 10 -5 56 -19 102 -31z m-5452 -240 c55
-63 62 -75 62 -113 0 -93 -3 -93 -105 14 -128 134 -132 142 -103 237 l10 33
36 -50 c21 -28 65 -82 100 -121z m5502 100 c80 -24 160 -60 177 -82 12 -14 29
-108 20 -108 -3 0 -21 9 -39 20 -19 11 -76 35 -127 54 -101 38 -136 63 -146
104 -3 15 -8 35 -11 45 -5 17 -4 17 23 4 15 -8 62 -24 103 -37z m-5548 -223
c84 -85 94 -104 84 -171 l-7 -44 -114 113 c-123 120 -124 122 -103 202 l11 47
26 -35 c14 -19 60 -69 103 -112z m5579 88 c104 -38 176 -79 183 -103 3 -9 8
-39 12 -66 l7 -49 -33 23 c-17 12 -80 44 -138 69 -113 49 -132 68 -147 140 -7
31 -5 33 11 26 11 -4 58 -22 105 -40z m69 -164 c129 -61 141 -73 148 -156 l5
-70 -34 26 c-19 14 -81 50 -138 79 -111 57 -121 69 -135 157 l-6 41 38 -19
c20 -10 75 -37 122 -58z m-5580 -214 c0 -31 -4 -57 -10 -57 -5 0 -10 3 -10 8
0 4 -34 34 -76 67 -109 85 -144 129 -144 179 0 93 2 93 126 -28 l114 -111 0
-58z m-48 -48 c37 -36 38 -38 38 -107 l0 -71 -105 75 c-58 42 -117 91 -131
109 -23 31 -25 40 -19 87 12 96 8 96 97 16 45 -40 98 -89 120 -109z m5720 57
c53 -35 68 -64 68 -138 l0 -49 -52 39 c-29 22 -82 56 -119 75 -91 51 -109 73
-116 141 l-6 56 89 -46 c49 -26 110 -60 136 -78z m36 -189 c28 -27 32 -37 32
-84 0 -58 -7 -64 -36 -32 -10 12 -63 50 -116 85 -53 35 -101 72 -106 81 -5 10
-13 39 -16 65 l-7 48 108 -66 c59 -36 123 -79 141 -97z m-5821 5 c86 -59 103
-83 103 -150 l0 -55 -22 20 c-13 11 -57 41 -99 66 -86 53 -149 116 -149 150 0
12 3 39 6 60 l7 37 46 -43 c25 -24 74 -62 108 -85z m5608 8 c3 -5 38 -31 78
-56 156 -100 176 -129 161 -224 l-7 -41 -41 39 c-23 21 -70 60 -106 85 -94 65
-103 78 -108 147 -3 38 -1 60 6 60 6 0 14 -4 17 -10z m-5604 -163 c91 -58 109
-83 109 -153 0 -39 -2 -40 -38 -15 -15 10 -56 35 -92 54 -36 20 -84 52 -107
72 -42 36 -43 38 -43 101 l0 65 43 -34 c23 -19 81 -59 128 -90z m5689 -56 c30
-21 74 -57 98 -80 40 -39 42 -44 42 -101 0 -33 -3 -60 -6 -60 -6 0 -115 96
-200 176 -41 39 -44 45 -44 94 l0 52 28 -21 c15 -12 52 -39 82 -60z m-5750
-54 c30 -19 76 -46 103 -61 56 -32 73 -56 81 -118 l7 -46 -111 55 c-61 30
-126 69 -145 88 -32 30 -35 37 -35 90 l0 57 23 -16 c12 -8 47 -31 77 -49z
m5824 -160 l58 -58 -7 -47 c-13 -96 -5 -97 -130 25 -113 109 -115 112 -115
156 0 80 5 82 73 29 34 -26 88 -73 121 -105z m-5862 34 c24 -16 77 -45 118
-64 92 -42 118 -69 126 -130 l7 -47 -93 40 c-114 49 -174 84 -195 112 -13 20
-22 118 -11 118 3 0 25 -13 48 -29z m5856 -213 c35 -44 38 -62 21 -122 l-11
-38 -15 23 c-9 13 -54 63 -99 110 -93 95 -105 118 -97 177 l6 41 81 -75 c44
-41 96 -94 114 -116z m-5773 29 c55 -27 115 -56 134 -65 34 -17 53 -48 64
-110 6 -30 5 -32 -12 -22 -11 5 -52 22 -93 36 -119 43 -185 82 -197 117 -13
34 -15 101 -3 95 4 -2 52 -25 107 -51z m5741 -158 c39 -53 40 -65 18 -140
l-16 -54 -22 29 c-11 16 -56 69 -98 118 -83 95 -87 106 -71 201 l6 39 74 -74
c41 -40 90 -94 109 -119z m-5764 26 c29 -14 90 -39 136 -56 87 -32 107 -50
118 -108 7 -31 6 -33 -14 -22 -11 6 -58 23 -104 37 -156 49 -198 82 -198 155
0 24 -1 24 62 -6z m5633 -85 c98 -108 119 -144 111 -192 -4 -22 -13 -56 -22
-76 l-15 -36 -24 42 c-14 24 -54 80 -90 125 -51 64 -65 88 -65 115 0 43 21
115 30 105 4 -4 38 -42 75 -83z m-5617 -39 c20 -10 77 -31 126 -46 101 -30
138 -59 155 -120 6 -21 9 -40 8 -41 -5 -5 -224 58 -264 76 -46 20 -61 44 -70
113 -6 43 -5 43 45 18z m5573 -123 c31 -38 69 -92 84 -119 l27 -50 -18 -49
c-16 -44 -34 -66 -34 -41 0 5 -24 43 -52 86 -29 43 -65 96 -80 118 -30 45 -34
76 -16 128 10 29 13 31 22 15 6 -10 36 -49 67 -88z m-5524 -37 c26 -10 82 -26
123 -36 119 -28 136 -42 170 -131 9 -23 8 -25 -7 -19 -10 3 -63 16 -117 27
-170 34 -197 53 -221 151 -8 32 -9 32 52 8z m5488 -102 c55 -75 85 -130 85
-158 0 -26 -30 -101 -40 -101 -4 0 -11 11 -14 24 -3 13 -33 66 -67 117 -75
114 -80 130 -62 193 l14 49 19 -30 c10 -17 39 -59 65 -94z m-65 -106 c35 -53
71 -118 81 -143 15 -40 16 -49 3 -79 -29 -68 -33 -67 -82 27 -24 48 -58 112
-74 142 -28 55 -28 55 -12 103 9 26 17 47 18 47 2 0 32 -44 66 -97z m-5383 63
c22 -8 86 -24 143 -35 110 -23 138 -39 161 -92 6 -16 10 -31 8 -33 -8 -7 -235
33 -275 49 -35 13 -45 24 -63 65 -30 69 -31 66 26 46z m5304 -143 c64 -113
109 -208 109 -231 0 -34 -61 -142 -80 -142 -4 0 -13 19 -20 42 -7 24 -32 82
-56 130 -24 48 -44 101 -44 118 0 23 47 140 56 140 2 0 17 -26 35 -57z m-5173
-9 c168 -30 190 -35 205 -52 18 -21 50 -82 45 -87 -8 -9 -227 18 -272 33 -44
15 -54 23 -73 62 -27 54 -29 74 -7 66 9 -3 55 -13 102 -22z m5177 -366 c6 -34
3 -46 -26 -88 l-33 -49 -27 77 c-14 42 -38 102 -52 132 -33 67 -34 110 -5 162
l23 40 57 -117 c31 -65 60 -136 63 -157z m-5075 221 c138 -14 168 -26 201 -74
15 -22 27 -40 26 -41 -1 -1 -61 3 -134 7 -158 10 -194 22 -222 78 -26 51 -26
55 2 47 12 -3 69 -11 127 -17z m4961 -254 c38 -95 38 -140 -2 -189 -32 -38
-48 -36 -49 7 0 10 -18 66 -40 124 -22 59 -40 118 -40 131 0 14 12 44 27 67
l27 43 24 -56 c13 -32 37 -88 53 -127z m-4876 129 c60 -3 123 -10 138 -16 23
-9 87 -84 87 -102 0 -10 -228 -6 -279 5 -54 11 -77 34 -106 103 l-15 35 32
-10 c18 -5 82 -12 143 -15z m4758 -164 c70 -188 72 -214 20 -270 l-36 -41 -23
88 c-12 48 -29 108 -38 132 -23 62 -20 98 11 147 15 24 28 42 29 41 1 -1 18
-45 37 -97z m-4656 25 c89 7 145 -6 173 -43 l22 -27 -104 -8 c-143 -10 -202
-2 -234 31 -51 54 -50 60 14 50 31 -6 90 -7 129 -3z m4610 -312 c6 -61 5 -61
-35 -104 l-40 -44 -6 40 c-4 22 -18 84 -31 137 -32 125 -32 146 7 199 l31 43
34 -104 c19 -58 37 -133 40 -167z m-4359 169 l44 -47 -38 -7 c-22 -4 -93 -11
-159 -14 l-120 -7 -37 41 c-75 83 -79 80 104 81 l162 1 44 -48z m4258 -273 c6
-55 5 -58 -31 -98 -21 -22 -41 -41 -45 -41 -5 0 -11 24 -15 53 -4 28 -16 93
-26 144 -21 102 -17 128 29 176 l26 28 28 -103 c15 -56 30 -128 34 -159z
m-4182 180 c17 -12 41 -35 54 -50 l24 -29 -29 0 c-15 0 -63 -7 -106 -15 -43
-8 -105 -15 -137 -15 -57 0 -59 1 -99 46 -23 26 -41 51 -41 55 0 5 30 9 68 10
37 0 87 4 112 8 82 15 122 12 154 -10z m4057 -171 c29 -145 27 -164 -23 -215
-23 -24 -46 -43 -50 -43 -4 0 -8 26 -8 58 0 31 -7 97 -15 145 -9 49 -13 98 -9
109 3 11 22 38 43 61 l36 40 3 -29 c2 -16 12 -72 23 -126z m-3917 33 l37 -38
-93 -22 c-51 -13 -122 -25 -158 -28 l-65 -5 -50 51 -49 51 49 1 c28 1 79 7
115 14 36 7 90 13 120 14 52 1 58 -1 94 -38z m3800 -48 c3 -32 9 -103 12 -158
l6 -101 -53 -48 -54 -49 -8 163 -8 163 43 44 c23 23 45 43 49 43 4 0 9 -26 13
-57z m-3694 -44 l44 -32 -100 -28 c-54 -16 -128 -32 -164 -35 -66 -7 -66 -7
-105 31 l-40 38 95 17 c52 10 111 22 130 28 63 18 94 14 140 -19z m3584 -271
c-6 -57 -19 -75 -81 -112 -10 -6 -13 28 -13 154 l0 162 37 37 37 36 13 -110
c7 -60 10 -136 7 -167z m-3474 181 l43 -31 -104 -34 c-57 -19 -128 -38 -157
-43 -49 -7 -56 -6 -90 19 -67 49 -69 57 -14 64 27 3 85 17 128 30 109 34 142
33 194 -5z m3364 -241 c-7 -66 -25 -94 -81 -125 l-39 -22 4 137 c2 75 8 151
13 168 6 18 27 43 52 61 l42 31 7 -96 c4 -54 5 -123 2 -154z m-3244 156 c22
-15 39 -28 38 -29 -2 -2 -48 -21 -103 -43 -133 -53 -191 -65 -225 -46 -26 14
-80 60 -80 68 0 2 21 7 48 11 26 4 81 19 122 35 98 37 148 38 200 4z m3114
-112 c-2 -165 -9 -197 -47 -226 -18 -13 -42 -27 -54 -30 -21 -7 -21 -5 -12 26
5 18 12 76 15 128 8 151 10 157 56 190 23 17 42 30 43 30 0 0 0 -53 -1 -118z
m-2993 32 l49 -27 -78 -35 c-113 -50 -200 -82 -226 -82 -12 0 -44 17 -70 37
l-47 36 73 22 c40 12 102 34 138 48 82 33 101 33 161 1z m2878 -114 c-10 -172
-20 -198 -88 -232 -30 -16 -56 -27 -58 -25 -1 2 2 19 7 38 6 19 15 77 21 129
14 136 23 156 77 190 26 16 47 28 48 27 1 -1 -2 -58 -7 -127z m-2747 39 l41
-21 -119 -59 c-149 -75 -178 -80 -239 -45 -25 15 -45 31 -45 35 0 5 15 12 33
15 17 4 75 26 127 51 107 50 143 54 202 24z m2623 -26 c-2 -21 -9 -77 -15
-125 -16 -132 -28 -159 -81 -185 -25 -12 -57 -25 -72 -28 l-27 -7 15 35 c8 20
22 80 30 134 21 133 29 149 89 184 28 16 54 29 59 29 4 0 5 -17 2 -37z m-2504
-34 c27 -12 49 -24 49 -28 0 -3 -24 -19 -53 -35 -223 -123 -227 -124 -300 -82
-43 26 -54 46 -23 46 6 0 50 19 97 43 89 44 159 76 172 76 5 1 31 -9 58 -20z
m974 -63 c14 -24 25 -45 25 -48 0 -10 -94 4 -122 18 -15 8 -55 14 -89 14 l-62
0 19 21 c20 23 83 58 124 69 33 9 72 -18 105 -74z m62 62 c48 -53 68 -133 40
-157 -17 -13 -51 21 -61 61 -3 14 -22 47 -41 72 l-35 46 38 0 c27 0 45 -7 59
-22z m358 -24 c-19 -25 -38 -58 -41 -72 -4 -15 -16 -37 -27 -49 -41 -45 -64
24 -31 90 29 57 54 77 96 77 l38 0 -35 -46z m140 23 c35 -12 104 -59 105 -69
0 -5 -27 -8 -60 -8 -34 0 -73 -6 -88 -14 -15 -7 -48 -16 -74 -18 l-46 -5 10
30 c15 43 83 108 105 101 10 -3 32 -11 48 -17z m-399 -31 l38 -32 -17 -42
c-11 -26 -17 -70 -17 -115 0 -69 -2 -75 -32 -105 -32 -30 -125 -78 -134 -69
-3 3 15 34 39 70 25 36 48 80 52 98 4 18 16 41 26 53 27 28 24 91 -5 142 -21
37 -22 41 -5 37 10 -3 35 -20 55 -37z m149 2 c-30 -52 -33 -113 -7 -142 10
-12 24 -39 30 -61 6 -22 32 -68 57 -103 48 -66 45 -73 -21 -43 -98 45 -164
140 -164 238 0 44 5 58 30 86 23 26 79 65 97 67 1 0 -9 -19 -22 -42z m1075 5
c-5 -16 -16 -70 -25 -122 -23 -137 -42 -174 -99 -196 -54 -21 -64 -16 -47 22
7 15 24 77 37 137 25 115 37 137 94 167 47 24 50 24 40 -8z m-2221 -34 c28
-10 43 -29 23 -29 -4 0 -51 -28 -104 -63 -53 -35 -114 -69 -135 -76 -36 -12
-44 -11 -81 8 -47 24 -52 36 -19 45 12 3 69 32 127 66 108 61 134 68 189 49z
m2096 -16 c-4 -10 -15 -56 -25 -103 -25 -111 -47 -174 -68 -193 -16 -14 -83
-37 -110 -37 -9 0 -6 12 8 40 11 22 31 81 45 131 29 111 44 135 98 160 52 23
61 24 52 2z m-1958 -38 l37 -16 -32 -19 c-18 -11 -56 -39 -84 -61 -29 -22 -78
-54 -111 -70 l-58 -30 -55 25 c-30 14 -54 27 -54 30 0 3 21 16 48 29 26 13 82
47 126 75 86 57 119 63 183 37z m577 9 c11 -4 1 -13 -34 -31 -28 -14 -55 -34
-61 -44 -6 -12 -20 -19 -39 -19 -27 0 -30 3 -30 33 0 36 8 51 30 60 20 8 115
8 134 1z m816 -14 c6 -8 10 -30 10 -47 0 -29 -3 -33 -28 -33 -16 0 -32 8 -39
19 -6 10 -35 30 -62 44 -61 30 -51 37 42 34 47 -2 71 -7 77 -17z m425 -22 c-7
-18 -21 -62 -30 -98 -26 -103 -63 -177 -94 -189 -32 -13 -111 -30 -111 -25 0
3 11 26 24 52 13 26 36 84 51 130 32 98 54 125 115 146 61 20 61 20 45 -16z
m-1070 -18 c25 -23 30 -44 19 -74 -6 -17 -5 -17 -186 5 -54 6 -98 15 -98 20 0
12 60 55 95 67 51 19 141 9 170 -18z m538 -6 c74 -52 63 -58 -125 -70 -98 -6
-108 -5 -114 11 -9 23 15 66 46 83 43 22 145 9 193 -24z m-1161 10 l58 -17
-28 -21 c-15 -11 -55 -44 -89 -73 -69 -58 -131 -93 -163 -93 -12 0 -44 10 -71
21 l-50 22 53 29 c29 16 78 48 108 72 48 38 106 74 119 76 3 0 31 -7 63 -16z
m1544 -32 c-8 -15 -22 -54 -31 -87 -20 -70 -66 -165 -89 -184 -16 -13 -96 -28
-96 -18 0 3 9 21 19 39 11 18 36 76 56 128 20 51 41 101 48 109 14 17 65 40
90 41 16 0 16 -2 3 -28z m-1359 -16 c3 -3 -7 -16 -23 -28 -16 -13 -56 -48 -89
-78 -112 -103 -143 -114 -230 -76 l-30 13 32 16 c17 9 73 51 125 93 l93 75 58
-4 c32 -3 61 -8 64 -11z m667 -143 c40 -35 81 -56 173 -88 16 -5 76 -95 64
-95 -20 0 -143 50 -213 87 -64 33 -73 42 -93 88 -13 28 -26 78 -29 111 l-7 59
29 -60 c18 -37 47 -76 76 -102z m577 143 c-6 -7 -25 -51 -42 -97 -36 -100 -72
-164 -102 -183 -24 -15 -117 -31 -117 -21 0 4 10 20 21 37 12 16 38 67 58 112
53 119 64 133 119 150 63 20 78 20 63 2z m-1125 -22 c18 -5 10 -16 -65 -91
-113 -113 -150 -137 -193 -128 -18 4 -43 11 -56 16 -23 9 -22 10 25 46 26 20
78 65 116 100 61 57 71 63 110 63 23 0 51 -3 63 -6z m984 1 c0 -19 -124 -255
-144 -274 l-25 -24 -20 24 c-46 56 -46 60 -1 149 47 89 66 106 131 119 58 12
59 12 59 6z m-852 -21 l31 -6 -65 -77 c-124 -144 -164 -166 -257 -140 l-38 10
28 21 c15 12 69 61 119 110 96 93 106 97 182 82z m690 -21 c-9 -10 -31 -49
-50 -86 l-34 -68 -38 56 -39 56 23 24 c25 26 42 32 109 34 41 1 43 0 29 -16z
m-598 -93 c-104 -128 -136 -153 -187 -145 -21 4 -45 9 -54 11 -10 3 18 39 96
119 l112 115 56 0 57 0 -80 -100z m443 85 c-6 -17 -25 -15 -31 3 -2 7 5 12 17
12 14 0 19 -5 14 -15z m-370 -37 c-6 -7 -41 -56 -78 -108 -37 -52 -69 -96 -70
-98 -1 -1 -10 1 -19 4 -15 6 -9 16 36 63 30 31 71 77 92 104 20 26 40 47 43
47 3 0 1 -6 -4 -12z m163 -55 c6 -30 3 -33 -47 -62 -60 -34 -178 -85 -223 -97
l-29 -7 32 47 c18 26 38 49 44 51 93 32 136 53 166 81 39 36 47 34 57 -13z
m54 -94 c11 -25 10 -32 -5 -49 -20 -22 -82 -37 -95 -24 -5 5 7 34 27 67 38 63
50 64 73 6z m-119 -51 l-31 -55 -75 -16 c-41 -9 -100 -20 -131 -23 l-57 -7 19
26 c13 17 39 31 79 42 33 9 96 33 140 54 44 21 81 37 83 36 2 -2 -11 -27 -27
-57z m364 -33 c40 -11 66 -26 79 -43 l19 -25 -57 7 c-31 3 -90 14 -131 23 -75
16 -75 16 -105 69 -16 30 -30 56 -30 58 0 3 37 -13 83 -34 45 -21 109 -46 142
-55z m-208 9 c-9 -9 -28 6 -21 18 4 6 10 6 17 -1 6 -6 8 -13 4 -17z m-229
-104 c-13 -21 -32 -41 -43 -44 -36 -8 -224 -28 -235 -24 -6 2 2 18 17 36 24
28 37 34 93 42 36 5 83 13 105 19 22 5 50 9 63 10 l23 1 -23 -40z m369 30 c24
-6 73 -14 110 -20 59 -8 72 -13 96 -42 15 -18 23 -34 17 -36 -11 -4 -199 16
-235 24 -11 3 -30 23 -43 44 -26 46 -22 48 55 30z m-417 -105 c0 -24 -27 -54
-54 -59 -75 -13 -206 -27 -225 -24 l-20 3 20 33 c19 30 25 32 77 33 32 0 80 4
107 9 63 9 95 11 95 5z m593 -14 c74 -6 79 -7 98 -38 l21 -33 -34 0 c-18 0
-78 7 -133 15 -55 8 -103 15 -106 15 -6 0 -29 46 -29 56 0 3 24 3 53 -1 28 -5
87 -11 130 -14z m-643 -77 c0 -4 -10 -24 -22 -45 -14 -25 -30 -40 -47 -43 -86
-17 -101 -18 -101 -6 0 9 -6 8 -18 -3 -27 -24 -56 -22 -49 3 6 25 8 25 -33 -5
-31 -23 -70 -33 -70 -19 0 3 14 26 32 50 35 49 34 49 163 62 122 12 145 13
145 6z m675 -10 c104 -8 109 -10 143 -58 18 -24 32 -47 32 -50 0 -15 -41 -3
-68 19 -36 30 -42 31 -35 5 4 -15 0 -20 -15 -20 -11 0 -25 7 -32 15 -9 11 -15
13 -20 5 -5 -9 -23 -9 -65 -1 -32 6 -59 12 -60 13 -21 33 -45 77 -45 83 0 4
21 5 48 1 26 -3 79 -9 117 -12z m-776 -174 c-23 -38 -42 -70 -43 -70 -2 0 6
32 17 70 18 60 24 70 44 70 21 0 20 -3 -18 -70z m738 0 c11 -38 19 -70 17 -70
-3 0 -74 127 -74 134 0 3 8 6 18 6 14 0 23 -17 39 -70z m-796 33 c-11 -16 -32
-41 -46 -58 l-25 -30 27 58 c19 39 33 57 46 57 18 0 17 -1 -2 -27z m874 -30
c13 -29 23 -53 21 -53 -2 0 -23 25 -46 56 -36 48 -39 55 -21 52 15 -2 29 -20
46 -55z m-945 39 c0 -5 -14 -21 -32 -38 -30 -27 -31 -27 -17 -4 9 14 19 31 23
38 8 13 26 16 26 4z m1012 -32 l22 -35 -23 20 c-28 24 -48 59 -31 53 6 -2 21
-19 32 -38z m-1112 27 c0 -2 -18 -18 -41 -36 l-41 -33 24 36 c12 20 31 36 41
36 9 0 17 -1 17 -3z m1224 -29 l19 -31 -36 27 c-42 32 -44 36 -19 36 10 0 26
-14 36 -32z"/>
<path d="M4343 8263 c-22 -4 -27 -18 -48 -136 -10 -50 -18 -40 -46 57 l-23 78
-44 -6 c-25 -3 -51 -6 -58 -6 -13 0 -12 -99 2 -237 5 -52 6 -53 38 -53 l33 0
-4 108 c-1 59 -1 103 2 97 3 -5 18 -53 33 -105 28 -94 29 -95 58 -92 37 4 39
9 54 101 21 123 27 124 35 9 l7 -108 34 0 34 0 -5 128 c-8 172 -8 172 -48 171
-17 -1 -42 -4 -54 -6z"/>
<path d="M4584 8124 c-62 -146 -62 -154 -2 -154 21 0 29 6 34 25 6 22 11 25
56 25 46 0 51 -2 61 -30 10 -27 16 -30 54 -30 24 0 43 2 43 4 0 1 -4 16 -9 32
-6 16 -26 82 -46 147 l-36 117 -48 0 -49 0 -58 -136z m121 -6 c7 -37 7 -38
-24 -38 -17 0 -31 1 -31 3 0 2 7 25 16 52 18 52 27 48 39 -17z"/>
<path d="M3809 8203 l-76 -14 23 -132 c13 -73 24 -138 24 -145 0 -11 10 -12
43 -7 23 4 43 8 44 9 1 0 -3 25 -9 55 -16 90 8 88 82 -6 23 -30 28 -32 68 -26
23 3 42 11 42 18 0 7 -20 34 -45 61 l-45 48 20 21 c46 49 6 136 -62 134 -18
-1 -67 -8 -109 -16z m105 -66 c9 -15 7 -21 -9 -33 -31 -23 -69 -14 -73 18 -2
19 2 28 15 31 31 9 56 3 67 -16z"/>
<path d="M5091 8074 l-80 -134 27 -6 c15 -3 34 -8 43 -10 9 -3 20 5 27 20 10
22 13 23 61 13 43 -8 51 -13 56 -37 5 -22 13 -29 43 -33 20 -4 38 -4 40 -2 4
4 -37 296 -43 302 -1 2 -22 7 -48 12 l-46 8 -80 -133z m120 -9 c3 -50 3 -50
-26 -47 -17 2 -31 5 -33 6 -1 2 10 24 24 50 14 26 28 46 29 44 2 -2 5 -25 6
-53z"/>
<path d="M5410 8141 c0 -6 12 -47 26 -93 26 -83 26 -119 -1 -189 -5 -13 2 -20
29 -29 20 -6 40 -9 45 -6 5 3 14 29 21 56 11 45 21 59 90 120 l79 69 -31 10
c-48 17 -62 14 -98 -24 -19 -19 -37 -35 -41 -35 -4 0 -13 24 -20 54 -11 50
-14 54 -49 65 -45 13 -50 14 -50 2z"/>
<path d="M3479 8124 l-46 -14 -10 -152 c-5 -84 -9 -154 -7 -156 1 -2 20 2 43
9 35 10 41 16 41 39 0 22 6 27 47 38 44 12 48 12 64 -9 15 -20 18 -21 58 -8
l41 14 -91 125 c-50 69 -91 126 -92 126 -1 1 -23 -5 -48 -12z m79 -169 c-2 -2
-15 -6 -31 -10 l-27 -7 0 58 0 59 31 -49 c17 -26 29 -49 27 -51z"/>
<path d="M5787 7998 c-8 -18 -26 -61 -41 -95 -14 -34 -26 -74 -26 -88 0 -67
73 -127 157 -129 35 -1 48 5 72 29 24 25 101 181 101 205 0 4 -17 14 -39 22
l-38 15 -33 -81 c-18 -44 -40 -89 -48 -98 -20 -24 -55 -23 -77 2 -20 22 -22
16 49 183 9 20 15 37 12 37 -2 0 -20 7 -40 15 l-36 15 -13 -32z"/>
<path d="M3125 7994 c-38 -14 -78 -28 -87 -31 -10 -3 -18 -8 -18 -12 0 -3 24
-64 54 -136 60 -147 50 -141 158 -93 48 22 74 40 84 59 41 80 -15 209 -101
233 -11 3 -51 -6 -90 -20z m94 -80 c30 -38 37 -90 17 -113 -38 -42 -52 -34
-84 48 -32 81 -30 91 20 91 17 0 34 -9 47 -26z"/>
<path d="M4440 7322 l0 -81 -57 -11 c-85 -18 -153 -46 -223 -91 l-63 -40 -58
57 c-56 55 -59 57 -59 32 0 -46 -10 -58 -46 -58 -19 0 -34 -4 -34 -8 0 -4 25
-32 55 -62 l54 -54 -24 -32 c-41 -53 -92 -169 -106 -239 l-13 -65 -78 0 c-43
0 -78 -3 -78 -6 0 -3 9 -19 21 -35 l20 -29 -21 -28 -22 -27 79 -3 80 -3 10
-57 c16 -81 47 -160 92 -230 l39 -60 -54 -53 c-55 -54 -56 -68 -8 -69 24 0 34
-17 34 -58 0 -25 3 -23 59 32 l59 59 62 -41 c55 -35 169 -79 253 -97 27 -5 27
-6 27 -86 l0 -80 29 20 c16 12 32 21 36 21 4 0 20 -9 36 -21 l29 -20 0 80 c0
80 0 81 28 86 87 19 118 28 167 49 30 14 75 39 101 57 l46 31 58 -57 58 -57 7
41 c6 37 10 41 35 41 38 0 44 13 19 36 -12 11 -34 36 -50 56 l-30 37 36 55
c43 67 73 142 89 221 l13 60 76 3 c43 2 77 5 77 8 0 3 -9 17 -20 31 l-19 25
25 34 26 34 -86 0 c-85 0 -86 0 -86 24 0 47 -50 183 -90 245 -22 34 -40 65
-40 69 0 4 23 30 50 57 28 27 50 53 50 57 0 4 -15 8 -34 8 -32 0 -35 2 -41 41
l-7 41 -58 -57 -58 -57 -34 25 c-50 39 -157 86 -236 104 l-71 17 -3 79 -3 79
-28 -22 c-28 -23 -36 -22 -74 6 l-23 16 0 -80z m77 -101 c10 9 13 2 13 -39 l0
-50 43 -7 c76 -12 166 -46 228 -87 l60 -41 41 39 c34 33 40 36 35 17 -4 -18
-1 -23 16 -23 19 0 17 -4 -15 -37 l-37 -38 39 -57 c45 -68 79 -154 87 -220 l6
-48 56 0 c48 -1 54 -2 39 -14 -16 -12 -16 -14 0 -29 15 -16 13 -17 -41 -17
-56 0 -57 -1 -57 -28 0 -66 -54 -200 -106 -261 l-27 -32 39 -40 c33 -34 35
-39 17 -39 -17 0 -20 -5 -16 -22 5 -19 -2 -15 -39 20 l-44 43 -19 -21 c-28
-31 -169 -98 -222 -105 -84 -12 -83 -11 -83 -68 -1 -42 -3 -48 -11 -34 -10 18
-11 18 -25 0 -12 -16 -13 -12 -14 35 0 33 -5 54 -12 56 -7 2 -40 8 -72 15 -67
12 -166 57 -211 94 l-30 26 -37 -37 c-28 -27 -38 -32 -38 -19 0 11 -8 17 -22
17 -20 0 -19 4 16 39 l37 38 -40 58 c-41 58 -75 146 -87 223 l-7 42 -56 0
c-51 1 -54 2 -37 15 20 15 20 15 0 30 -17 13 -14 14 37 15 l56 0 12 68 c14 74
58 175 98 222 l26 31 -39 40 c-36 36 -37 39 -15 39 19 0 22 4 18 21 -5 18 1
15 31 -15 21 -20 41 -36 45 -36 4 0 29 16 56 35 55 40 154 79 224 89 l47 7 0
52 c0 39 3 48 12 39 8 -8 15 -9 25 -1z"/>
<path d="M4460 6825 l-44 -134 -145 -3 -145 -3 115 -85 c88 -65 114 -90 112
-105 l-3 -20 9 20 c10 24 19 15 -103 106 l-100 74 134 5 133 5 42 125 42 125
42 -127 43 -128 135 0 136 0 -106 -80 c-68 -51 -107 -87 -106 -98 1 -16 2 -16
6 0 2 9 54 54 116 100 l111 83 -144 5 -143 5 -43 129 c-24 71 -45 130 -47 132
-2 2 -23 -57 -47 -131z"/>
<path d="M4661 6474 c-1 -5 10 -41 23 -80 14 -38 25 -64 25 -58 1 5 -10 41
-23 80 -14 38 -25 64 -25 58z"/>
<path d="M4311 6369 c-12 -39 -21 -72 -19 -75 2 -2 14 28 27 67 12 39 21 72
19 75 -2 2 -14 -28 -27 -67z"/>
<path d="M4397 6339 c-53 -38 -101 -68 -106 -65 -5 3 -11 -3 -14 -15 -4 -14
-2 -18 6 -11 57 44 216 152 223 152 5 0 59 -36 119 -79 61 -43 111 -78 112
-77 1 1 0 12 -4 25 -3 13 -9 18 -12 12 -5 -7 -45 16 -107 59 -54 38 -103 70
-109 70 -5 0 -54 -32 -108 -71z"/>
<path d="M3382 6959 c-78 -44 -95 -76 -88 -170 l5 -77 -62 -48 c-56 -44 -59
-45 -34 -15 l29 35 -7 105 c-4 58 -9 107 -10 109 -8 9 -66 -55 -84 -91 -27
-56 -26 -83 3 -141 13 -26 21 -55 18 -64 -3 -9 -37 -46 -75 -82 -39 -36 -63
-54 -54 -40 21 30 22 99 2 164 -8 27 -15 65 -15 84 l0 35 -22 -19 c-11 -10
-34 -39 -50 -63 -41 -66 -40 -132 5 -197 38 -54 37 -63 -10 -119 l-31 -38 5
39 c3 27 -3 62 -21 113 -14 41 -26 90 -26 109 0 31 -2 33 -16 21 -26 -21 -61
-81 -74 -126 -17 -56 -6 -104 35 -158 19 -25 35 -52 35 -61 0 -8 -21 -44 -46
-80 -49 -69 -66 -85 -34 -31 28 45 25 95 -9 180 -16 39 -32 85 -36 102 -6 29
-7 29 -22 10 -29 -38 -63 -120 -63 -153 0 -45 22 -93 64 -140 20 -22 36 -46
36 -53 0 -8 -11 -32 -25 -54 -23 -38 -24 -38 -25 -14 0 15 -20 66 -45 115 -25
48 -45 96 -45 106 0 31 -15 20 -38 -28 -51 -103 -38 -179 40 -254 l50 -47 -25
-49 c-24 -47 -25 -47 -37 -24 -7 12 -30 42 -51 64 -21 23 -49 61 -62 85 l-25
43 -13 -38 c-18 -55 -16 -143 5 -182 14 -28 78 -84 106 -94 11 -4 -9 -78 -21
-78 -4 0 -10 8 -14 18 -3 11 -30 48 -61 83 -31 35 -64 80 -74 99 l-18 34 -12
-56 c-19 -84 -10 -168 23 -212 21 -27 83 -73 124 -90 3 -2 -33 -145 -38 -151
-4 -3 -9 7 -12 22 -3 15 -35 63 -71 105 -35 42 -67 86 -71 97 -10 33 -22 25
-34 -23 -35 -139 11 -240 132 -291 42 -17 42 -15 30 -187 -5 -82 -8 -95 -19
-81 -6 10 -10 31 -7 49 8 49 -27 114 -88 165 -30 24 -75 65 -101 91 l-48 48
-6 -26 c-11 -43 3 -141 26 -189 25 -52 86 -99 152 -116 54 -15 80 -48 88 -110
l6 -47 -32 24 c-17 14 -73 42 -125 64 -51 22 -102 49 -114 60 -30 28 -38 25
-30 -12 37 -170 123 -258 255 -258 l55 0 18 -97 c9 -54 20 -111 24 -127 4 -22
2 -27 -8 -24 -7 2 -16 18 -20 34 -17 83 -57 119 -199 180 -47 20 -100 48 -119
62 l-33 25 7 -44 c28 -169 119 -255 281 -268 92 -7 108 -16 119 -69 l7 -34
-31 16 c-17 9 -70 27 -118 40 -49 13 -113 37 -143 52 -72 38 -159 41 -208 6
-69 -49 -95 -168 -59 -267 l14 -40 8 35 c10 47 24 68 60 90 71 43 162 31 260
-34 l52 -35 -13 -52 c-8 -30 -14 -65 -14 -80 0 -15 -7 -29 -16 -33 -25 -10
-96 27 -131 67 -36 41 -68 97 -56 97 27 0 108 -68 156 -130 15 -19 27 -30 27
-24 0 22 -100 121 -149 148 -29 15 -55 26 -57 23 -8 -7 43 -86 80 -125 31 -34
94 -72 119 -72 7 0 25 -26 41 -57 l28 -57 -34 26 c-64 48 -180 96 -162 66 46
-78 151 -158 207 -158 15 0 27 -2 27 -4 0 -2 16 -39 36 -82 l36 -79 -65 63
c-57 54 -163 119 -175 107 -9 -8 40 -74 87 -118 32 -30 64 -49 92 -57 63 -15
66 -18 106 -90 l35 -64 -40 36 c-45 41 -130 93 -138 85 -10 -9 49 -99 90 -139
24 -24 58 -44 90 -53 28 -9 58 -20 66 -26 12 -9 11 -10 -5 -4 -11 4 -44 9 -74
12 -43 5 -66 15 -105 45 -63 47 -141 87 -189 95 -51 8 -87 -29 -87 -90 0 -53
43 -185 48 -147 17 129 73 141 205 42 114 -86 343 -290 416 -373 78 -87 140
-119 243 -127 68 -5 70 -6 94 -44 19 -30 43 -114 44 -155 0 -2 11 -10 24 -18
36 -24 76 0 111 68 l29 54 95 17 c53 10 103 20 112 22 12 3 23 -22 53 -117 24
-80 41 -119 49 -115 7 2 55 18 107 35 447 142 898 144 1355 6 64 -20 122 -37
128 -38 6 -1 20 46 32 106 12 59 25 110 28 114 6 6 185 -27 259 -47 28 -8 43
-21 60 -51 27 -48 63 -70 94 -58 29 10 33 19 44 83 5 30 20 72 34 94 24 38 26
39 93 44 100 7 154 36 253 132 187 181 422 381 491 416 73 38 115 16 128 -65
5 -29 11 -44 14 -35 24 57 37 110 37 156 0 45 -4 56 -26 73 -15 12 -34 21 -44
21 -39 0 -116 -36 -186 -86 -53 -38 -84 -54 -107 -54 -18 0 -48 -4 -67 -10
-32 -9 -33 -8 -16 5 11 8 29 15 41 15 40 0 114 57 155 121 22 34 40 66 40 70
0 16 -55 -12 -113 -57 l-59 -45 34 62 c30 57 37 63 78 74 60 14 109 45 146 92
44 54 58 83 42 83 -32 -1 -104 -44 -160 -97 -33 -32 -59 -53 -57 -47 2 5 17
40 34 77 25 56 33 67 54 67 57 0 163 79 201 150 11 20 10 21 -12 15 -48 -15
-93 -36 -122 -59 -57 -42 -60 -40 -30 14 25 45 38 56 73 68 23 8 59 31 80 51
39 38 97 128 88 137 -17 17 -134 -69 -179 -132 -17 -24 -35 -44 -38 -44 -4 0
-10 26 -13 58 -4 31 -9 68 -13 82 -5 22 2 30 53 62 136 88 273 66 306 -50 l14
-46 11 33 c33 96 23 187 -29 246 -57 65 -144 70 -250 16 -30 -17 -94 -39 -140
-51 -46 -12 -95 -28 -107 -36 -31 -20 -34 -16 -21 29 12 46 33 57 102 57 72 0
144 23 189 60 45 37 95 136 105 204 l6 49 -35 -26 c-19 -15 -64 -39 -99 -53
-139 -57 -191 -98 -211 -169 -11 -40 -24 -62 -32 -54 -2 2 6 58 19 124 l21
120 65 6 c138 12 212 90 245 259 l7 34 -32 -23 c-18 -13 -69 -39 -114 -58 -45
-19 -99 -48 -119 -64 l-38 -30 0 42 c0 59 35 102 95 119 114 32 166 105 173
243 2 48 2 87 -2 87 -4 0 -20 -16 -37 -35 -17 -19 -59 -57 -94 -85 -81 -65
-107 -106 -107 -170 0 -27 -6 -57 -14 -67 -12 -16 -13 -10 -14 43 0 34 -3 94
-6 135 l-7 75 58 29 c83 43 118 90 123 166 3 34 -1 87 -8 117 l-12 56 -18 -34
c-10 -19 -41 -61 -69 -93 -57 -65 -81 -105 -82 -139 -1 -13 -11 18 -23 67
l-22 90 41 22 c111 59 143 150 104 297 l-11 39 -24 -42 c-13 -24 -45 -66 -70
-95 -26 -28 -52 -64 -59 -79 l-12 -29 -17 41 c-20 52 -21 46 13 61 56 23 111
104 111 164 0 39 -21 126 -30 126 -5 0 -11 -8 -15 -18 -3 -11 -30 -47 -60 -82
-30 -35 -57 -71 -60 -82 -9 -28 -18 -22 -37 25 -24 57 -24 59 21 95 46 37 71
86 71 140 0 43 -21 110 -44 144 -15 21 -16 21 -21 2 -3 -10 -25 -57 -47 -103
-23 -45 -42 -98 -42 -117 -1 -19 -2 -34 -3 -34 -4 0 -53 93 -53 101 0 5 15 26
34 46 73 82 84 152 41 240 -29 58 -55 86 -55 59 0 -9 -16 -57 -35 -106 -40
-103 -43 -132 -14 -179 36 -60 12 -44 -35 24 -51 74 -55 93 -25 121 31 28 59
88 59 128 0 45 -13 80 -53 138 l-32 48 -17 -63 c-9 -34 -24 -88 -33 -120 -13
-45 -14 -65 -6 -89 10 -29 9 -28 -29 13 -21 24 -39 52 -40 61 0 9 11 34 25 54
36 53 47 101 34 149 -12 41 -74 135 -90 135 -5 0 -9 -16 -9 -36 0 -20 -7 -61
-16 -91 -21 -71 -14 -135 17 -171 13 -15 -14 9 -59 53 -45 44 -82 88 -82 97 0
10 9 35 20 55 36 67 25 125 -36 192 -41 46 -59 52 -50 19 3 -13 0 -53 -6 -89
-13 -79 -7 -106 29 -150 23 -28 17 -25 -34 16 -34 28 -64 58 -68 67 -3 9 -1
35 5 56 14 53 4 95 -34 136 -29 33 -105 80 -114 72 -2 -3 1 -13 6 -23 6 -10
13 -39 17 -65 l7 -48 -28 15 c-29 15 -138 21 -169 9 -13 -5 -9 -11 18 -28 47
-29 130 -106 122 -114 -3 -4 -35 -7 -70 -7 l-64 0 32 -33 c18 -19 49 -42 69
-53 63 -32 100 -25 179 32 13 10 24 6 59 -22 l42 -34 -41 -7 c-22 -4 -62 -16
-88 -28 -26 -12 -68 -24 -92 -27 l-43 -6 23 -19 c104 -82 213 -79 272 7 l23
34 64 -64 64 -64 -35 5 c-22 4 -62 -2 -106 -15 -38 -12 -90 -21 -114 -21 l-44
-1 35 -30 c99 -86 188 -91 259 -15 14 14 32 26 40 25 15 0 111 -108 111 -124
0 -4 -11 0 -25 9 -30 20 -87 20 -181 2 -39 -7 -86 -11 -105 -9 l-34 4 50 -47
c55 -52 98 -74 147 -75 l33 -1 -35 -10 c-19 -5 -57 -8 -83 -5 l-48 4 43 -44
c99 -101 210 -110 293 -23 38 40 60 38 88 -7 36 -56 69 -124 64 -130 -3 -2
-17 7 -32 21 -37 35 -82 41 -182 26 -47 -7 -107 -9 -136 -6 l-51 7 36 -43 c19
-24 59 -58 89 -75 82 -51 159 -43 230 24 44 40 65 29 104 -57 19 -41 32 -76
31 -78 -2 -2 -21 9 -42 24 -37 25 -42 26 -119 18 -44 -4 -112 -8 -152 -8 -83
-1 -83 -5 -8 -75 98 -91 184 -95 281 -15 23 19 45 34 48 34 4 0 76 -211 76
-225 0 -12 -28 -4 -34 10 -3 8 -20 24 -38 35 -28 17 -51 20 -139 20 -62 0
-125 6 -152 14 -26 8 -47 11 -47 7 0 -16 59 -89 100 -124 68 -58 164 -63 240
-13 68 45 75 39 94 -66 10 -51 19 -101 21 -110 5 -27 -9 -21 -28 11 -25 43
-73 60 -199 72 -68 6 -128 18 -150 29 -28 13 -38 14 -38 5 0 -27 86 -141 128
-170 38 -26 52 -30 110 -30 54 0 76 6 113 26 26 15 52 23 59 19 7 -4 14 -47
17 -111 l6 -104 -23 28 c-29 36 -75 59 -190 91 -52 15 -109 38 -126 51 l-32
25 12 -48 c45 -168 150 -243 289 -207 32 8 60 15 62 15 7 0 6 -100 -1 -154 -8
-55 -19 -58 -38 -12 -17 42 -77 78 -162 100 -95 25 -146 45 -173 69 l-24 22 7
-34 c9 -48 53 -141 79 -169 55 -59 157 -79 245 -48 22 8 43 12 46 9 11 -11 6
-59 -15 -164 -23 -116 -38 -154 -39 -101 0 76 -46 131 -168 201 -40 24 -89 57
-109 74 l-36 32 6 -90 c6 -69 14 -103 35 -147 l28 -57 -27 16 c-15 9 -32 26
-37 38 -29 64 -122 135 -175 135 -37 0 -89 -41 -117 -90 -22 -39 -25 -60 -28
-160 -2 -64 1 -126 7 -140 l10 -25 0 25 c1 14 12 48 25 76 55 118 133 109 192
-21 21 -46 61 -215 52 -220 -2 0 -20 -13 -40 -28 l-36 -27 1 88 c1 82 -23 194
-44 207 -10 7 -29 -85 -29 -144 0 -31 9 -65 25 -96 l24 -49 -26 -56 c-20 -40
-28 -50 -30 -35 -7 39 -37 111 -62 148 -22 35 -26 37 -32 19 -10 -26 7 -145
25 -180 8 -15 24 -36 36 -47 18 -17 20 -26 15 -70 -11 -89 -14 -90 -50 -17
-38 76 -105 150 -105 116 0 -72 52 -186 102 -222 26 -19 22 -37 -17 -80 -19
-22 -38 -49 -43 -61 -7 -21 -19 -9 -125 119 -64 78 -117 139 -117 135 0 -6 75
-150 128 -245 l25 -45 -34 30 c-19 17 -43 40 -54 51 -43 46 -119 109 -102 84
9 -14 21 -34 26 -45 5 -12 16 -27 25 -34 9 -7 16 -19 16 -26 0 -7 7 -18 16
-25 8 -8 20 -22 25 -33 16 -28 -8 -13 -72 48 -82 77 -93 83 -62 33 38 -58 83
-123 113 -161 30 -38 29 -37 -110 65 -89 67 -111 76 -67 28 12 -14 40 -47 62
-75 21 -27 53 -65 69 -84 28 -31 23 -29 -49 20 -44 29 -82 56 -85 59 -10 11
-60 40 -67 40 -4 0 -1 -6 7 -13 8 -7 31 -32 50 -57 19 -25 59 -73 89 -108 29
-34 52 -65 49 -68 -3 -2 -90 7 -194 21 -587 78 -1171 76 -1824 -5 -91 -12
-173 -23 -184 -27 -14 -4 -16 -2 -10 8 7 14 88 112 111 137 7 7 27 33 44 57
18 25 37 45 42 45 6 0 8 3 5 6 -5 5 -53 -20 -68 -36 -3 -3 -41 -29 -84 -59
l-79 -54 58 69 c31 38 75 89 96 114 21 24 36 46 34 48 -4 4 -192 -134 -200
-148 -3 -6 -11 -10 -17 -10 -6 0 -3 10 8 23 11 12 33 42 49 67 17 25 32 47 35
50 3 3 18 25 34 50 34 52 23 45 -69 -42 -85 -82 -93 -79 -30 11 108 155 105
155 -63 -4 l-52 -50 75 143 c41 78 75 145 75 148 0 4 -50 -54 -112 -129 l-112
-136 -17 28 c-10 16 -22 32 -28 36 -6 3 -18 20 -26 36 -15 29 -15 30 20 63 43
41 74 108 82 179 l6 52 -23 -20 c-33 -30 -81 -102 -100 -153 l-17 -45 -10 68
c-10 67 -9 68 23 116 18 27 37 71 43 99 13 59 15 130 4 130 -23 0 -93 -145
-93 -193 0 -15 -10 -2 -29 37 l-29 59 24 45 c27 51 33 147 12 217 l-11 40 -20
-45 c-16 -34 -22 -72 -25 -152 l-4 -107 -35 27 c-34 27 -35 28 -29 87 7 90 48
193 90 233 41 37 73 41 105 11 27 -26 60 -95 61 -126 0 -13 4 -23 9 -23 14 0
23 160 12 215 -14 74 -29 106 -63 142 -40 41 -82 50 -134 28 -48 -20 -76 -46
-114 -105 -17 -26 -41 -52 -54 -58 l-25 -11 24 35 c28 42 45 114 45 196 l0 62
-32 -31 c-18 -17 -71 -54 -118 -81 -47 -28 -95 -61 -107 -74 -26 -28 -53 -88
-53 -120 -1 -49 -20 10 -42 131 -25 139 -22 150 40 124 24 -10 59 -14 103 -11
78 4 123 32 169 104 29 46 57 130 47 140 -3 4 -18 -3 -33 -15 -15 -12 -52 -28
-83 -37 -137 -38 -178 -55 -208 -87 -16 -17 -33 -40 -36 -49 -14 -40 -26 -13
-32 77 -4 53 -5 98 -3 101 3 2 33 -3 67 -12 134 -34 234 32 281 184 11 35 20
66 20 69 0 3 -14 -7 -31 -21 -17 -14 -56 -33 -87 -42 -171 -47 -205 -63 -233
-107 l-21 -32 7 110 c4 60 11 113 17 116 6 4 32 -5 59 -18 132 -69 255 -19
333 135 l26 51 -43 -19 c-24 -10 -90 -23 -154 -29 -124 -12 -158 -24 -197 -73
-32 -41 -33 -30 -10 95 11 59 22 91 32 94 8 4 41 -9 74 -27 53 -28 67 -32 118
-28 43 3 69 12 98 32 46 32 138 155 106 142 -44 -19 -95 -26 -187 -26 -102 0
-162 -16 -173 -45 -4 -8 -15 -20 -26 -26 -23 -12 -24 -21 24 134 16 53 36 97
42 97 7 0 23 -12 37 -26 84 -90 200 -83 298 19 64 66 70 79 30 65 -24 -8 -59
-8 -139 2 -117 13 -156 9 -195 -21 -33 -26 -32 -14 6 71 35 77 58 89 95 49 48
-54 140 -74 208 -45 37 15 97 66 125 105 l19 26 -102 4 c-230 8 -222 9 -255
-23 -17 -16 -34 -27 -37 -23 -4 3 14 41 39 84 49 85 77 102 103 64 25 -35 97
-71 143 -71 60 0 133 42 182 104 l18 23 -42 -4 c-23 -2 -60 0 -82 5 l-40 10
34 1 c49 1 110 34 156 82 l40 41 -35 -4 c-19 -3 -64 1 -100 8 -86 18 -150 18
-178 -2 -13 -9 -25 -14 -28 -11 -8 8 95 127 110 127 7 0 23 -12 37 -26 71 -76
161 -72 256 11 l38 34 -43 1 c-24 0 -75 10 -114 21 -45 14 -82 19 -106 16
l-36 -6 59 59 c33 33 64 60 70 60 7 0 18 -11 25 -25 37 -69 133 -86 220 -39
66 36 82 54 47 54 -14 0 -62 14 -107 30 -45 17 -93 30 -108 30 l-27 0 25 21
c65 52 69 54 93 32 72 -66 151 -56 233 28 38 40 38 40 11 34 -15 -4 -48 -4
-74 0 l-46 7 63 56 c35 32 72 62 83 68 29 16 7 25 -66 25 -41 1 -76 -5 -96
-15 l-31 -17 6 43 c4 24 11 54 16 67 5 13 7 25 5 27 -1 2 -26 -10 -55 -27z
m23 -46 c-11 -87 -16 -103 -42 -133 -33 -40 -51 -38 -59 6 -11 57 11 110 58
144 23 17 43 30 45 30 2 0 1 -21 -2 -47z m2272 -23 c32 -47 31 -140 -2 -140
-25 0 -62 58 -69 107 -4 26 -9 61 -13 77 l-5 29 33 -19 c19 -11 44 -35 56 -54z
m-2474 -212 c-25 -43 -39 -45 -57 -9 -27 51 -21 112 16 162 l32 44 14 -83 c13
-76 12 -85 -5 -114z m320 132 c-43 -41 -74 -61 -98 -66 -48 -9 -61 5 -42 42
30 59 74 83 152 83 l50 0 -62 -59z m2037 37 c38 -25 75 -81 65 -97 -8 -13 -45
-12 -71 3 -12 7 -47 36 -80 65 l-58 52 56 0 c41 0 64 -6 88 -23z m306 -64 c16
-40 16 -46 0 -88 -22 -56 -34 -64 -58 -35 -19 24 -22 67 -11 158 l6 53 23 -22
c13 -12 31 -42 40 -66z m-2352 -71 l50 -7 -32 -27 c-68 -57 -141 -58 -193 -2
-24 25 -24 26 -4 41 20 15 49 14 179 -5z m2156 3 c11 -13 9 -20 -10 -40 -37
-39 -84 -50 -134 -31 -24 9 -53 28 -66 41 l-23 25 39 1 c21 1 50 5 64 9 44 14
117 11 130 -5z m-2670 -17 c0 -13 7 -45 15 -72 8 -27 15 -60 15 -74 0 -31 -29
-92 -44 -92 -6 0 -22 17 -36 37 -36 52 -35 125 3 181 30 47 47 53 47 20z
m3061 -39 c10 -21 19 -55 19 -75 0 -42 -45 -127 -63 -122 -7 2 -20 21 -31 42
-18 36 -18 40 -1 109 26 113 25 110 42 96 8 -7 23 -30 34 -50z m-2709 -95 c32
-13 65 -24 73 -24 26 0 6 -20 -39 -41 -78 -35 -150 -16 -189 50 -18 31 -18 31
5 41 30 12 79 4 150 -26z m2443 26 c25 -10 25 -10 10 -40 -33 -63 -108 -86
-182 -55 -64 27 -70 37 -26 51 21 7 63 21 93 33 64 24 70 24 105 11z m-2931
-89 c31 -89 33 -150 7 -182 -19 -23 -20 -23 -39 -6 -57 52 -67 141 -25 218 14
27 27 48 29 47 1 -2 14 -36 28 -77z m3329 37 c14 -24 28 -56 31 -71 9 -40 -10
-103 -44 -140 -26 -29 -30 -31 -45 -16 -30 30 -30 85 0 180 16 49 30 89 31 89
2 0 14 -19 27 -42z m-2985 -130 l84 -22 -24 -18 c-12 -10 -42 -25 -66 -34 -54
-22 -109 -8 -147 37 -51 61 8 76 153 37z m2746 16 c9 -3 16 -12 16 -19 0 -18
-65 -73 -96 -81 -33 -8 -90 9 -132 40 l-33 24 48 10 c26 6 59 15 73 21 28 11
100 14 124 5z m397 -91 c15 -56 1 -109 -43 -159 l-32 -36 -18 22 c-27 33 -22
94 15 186 l32 81 17 -25 c9 -13 22 -45 29 -69z m-3612 -12 c34 -88 35 -126 6
-165 -17 -22 -28 -16 -66 36 -23 33 -29 51 -29 95 0 55 34 144 49 127 4 -5 22
-47 40 -93z m365 -59 l88 -19 -38 -32 c-74 -60 -150 -60 -215 0 l-33 31 23 19
c29 24 62 24 175 1z m2961 6 c31 -14 32 -28 2 -56 -67 -63 -158 -59 -235 11
l-23 22 83 16 c103 21 140 22 173 7z m-3159 -43 c9 -14 34 -36 56 -49 l40 -24
-67 5 c-58 5 -70 3 -96 -16 -17 -12 -34 -21 -40 -19 -10 3 71 128 83 128 4 0
15 -11 24 -25z m3263 -34 c22 -33 41 -62 41 -65 0 -12 -22 -5 -50 15 -25 19
-37 21 -97 16 l-68 -6 33 16 c19 9 46 31 60 50 15 18 30 33 33 33 3 0 25 -27
48 -59z m-3509 -159 c0 -24 -5 -52 -10 -63 -11 -19 -11 -19 -41 3 -67 50 -89
141 -54 226 l16 37 44 -80 c33 -59 44 -91 45 -123z m3800 128 c5 -19 10 -44
10 -55 -1 -36 -37 -101 -71 -128 l-34 -26 -12 22 c-22 40 -14 84 30 172 46 92
55 94 77 15z m-3445 -29 c54 -11 103 -17 107 -15 4 3 8 1 8 -3 0 -15 -83 -73
-122 -85 -48 -14 -99 0 -147 40 -38 32 -38 56 1 72 33 13 42 12 153 -9z m3147
-9 c19 -19 19 -19 -16 -50 -75 -66 -158 -64 -237 6 l-43 39 40 2 c21 1 66 8
99 16 74 17 132 13 157 -13z m-3635 -225 c43 -49 60 -98 48 -136 -3 -12 -12
-21 -19 -21 -25 0 -98 62 -112 95 -14 35 -18 103 -8 142 6 23 6 23 27 -5 12
-15 40 -49 64 -75z m4043 17 c0 -70 -23 -113 -79 -151 -45 -30 -58 -29 -66 6
-9 40 13 86 74 155 28 33 51 64 51 70 0 6 5 4 10 -4 5 -8 10 -42 10 -76z
m-3552 45 c33 1 27 -13 -24 -58 -44 -39 -95 -61 -139 -61 -30 1 -97 34 -123
62 l-23 26 28 22 c27 21 33 22 143 15 63 -4 125 -7 138 -6z m3236 0 c38 -18
38 -35 1 -68 -48 -42 -104 -57 -153 -43 -45 14 -116 63 -131 90 -10 18 -6 19
51 21 34 1 64 3 66 6 10 10 142 5 166 -6z m405 -216 c2 -87 -33 -144 -112
-184 l-37 -20 -11 27 c-20 53 3 102 93 202 26 30 48 59 49 65 2 30 17 -44 18
-90z m-4289 80 c0 -5 27 -39 60 -77 33 -38 64 -84 71 -103 11 -35 5 -103 -10
-103 -5 0 -31 15 -57 33 -77 51 -107 129 -88 226 6 27 24 45 24 24z m523 -52
l58 -1 -17 -23 c-28 -36 -84 -76 -126 -89 -51 -15 -108 2 -156 47 -35 32 -36
35 -20 51 22 22 80 31 148 23 30 -4 81 -8 113 -8z m3472 -11 c23 -19 18 -35
-18 -63 -85 -64 -163 -57 -249 23 l-53 49 60 2 c33 0 85 4 115 8 63 7 123 0
145 -19z m-4020 -254 c31 -37 63 -80 71 -95 15 -29 18 -89 6 -109 -13 -20 -92
28 -127 77 -26 36 -30 52 -30 104 0 56 10 106 19 96 2 -2 29 -35 61 -73z
m4389 43 c19 -97 -11 -175 -88 -226 -26 -18 -52 -33 -57 -33 -15 0 -21 68 -10
103 7 19 38 65 71 103 33 38 60 72 60 77 0 21 18 3 24 -24z m-3854 0 c-20 -37
-90 -98 -127 -110 -47 -15 -103 -6 -158 25 -49 29 -50 44 -7 73 21 14 56 19
157 24 72 3 134 6 138 7 4 1 3 -7 -3 -19z m3478 5 c48 -6 100 -44 87 -63 -11
-19 -106 -61 -138 -61 -42 0 -98 27 -140 68 -69 66 -68 67 46 64 56 -1 121 -5
145 -8z m-3508 -192 c0 -15 -56 -87 -89 -115 -62 -51 -131 -56 -218 -15 -49
22 -53 35 -20 66 33 31 67 41 189 52 62 6 114 13 117 15 7 8 21 6 21 -3z
m3449 -13 c118 -11 185 -35 196 -70 9 -28 -11 -44 -82 -65 -89 -26 -170 9
-233 101 -36 52 -37 59 -7 51 12 -3 69 -11 126 -17z m-3934 -199 c8 -16 15
-47 15 -70 0 -39 -1 -40 -27 -34 -54 13 -126 59 -151 97 -19 29 -26 55 -30
114 l-5 76 92 -78 c50 -42 98 -90 106 -105z m4471 112 c-15 -123 -70 -187
-188 -216 -27 -6 -28 -5 -28 30 0 52 27 100 78 142 25 20 64 53 86 74 22 20
45 34 50 31 4 -3 6 -31 2 -61z m-479 -138 c126 -37 167 -62 175 -109 4 -27
-60 -48 -129 -43 -75 6 -123 42 -162 119 -40 80 -40 92 -2 73 17 -8 69 -26
118 -40z m-3567 37 c0 -18 -33 -87 -57 -119 -48 -63 -134 -87 -225 -61 -79 21
-25 95 96 130 39 11 94 29 121 39 61 22 65 22 65 11z m-506 -212 c93 -39 139
-80 154 -139 l11 -43 -70 5 c-100 8 -153 42 -196 128 -17 36 -34 77 -37 92
l-6 27 32 -18 c18 -11 69 -34 112 -52z m4562 9 c-33 -115 -107 -176 -223 -186
-61 -5 -63 -4 -63 19 0 61 63 120 181 168 42 18 85 38 95 46 10 7 21 12 22 10
2 -2 -3 -28 -12 -57z m-4032 -50 c-19 -57 -77 -126 -121 -144 -39 -17 -106
-17 -152 0 -44 16 -47 26 -20 60 27 35 76 59 173 85 43 12 90 28 105 35 14 8
27 13 28 12 2 -2 -4 -23 -13 -48z m3538 -13 c133 -39 187 -105 108 -132 -73
-25 -156 -9 -208 40 -24 22 -63 91 -76 134 l-7 22 48 -19 c26 -11 87 -31 135
-45z m-4208 -133 c3 -5 46 -26 95 -46 120 -50 164 -83 186 -141 25 -63 15 -71
-71 -57 -99 16 -151 52 -191 132 -37 74 -50 120 -35 120 6 0 13 -4 16 -8z
m681 -49 c-20 -180 -80 -243 -233 -243 l-53 0 7 38 c14 78 40 107 160 178 50
29 97 60 104 69 20 24 22 19 15 -42z m4055 42 c0 -30 -41 -121 -69 -156 -17
-20 -46 -44 -65 -53 -44 -21 -141 -39 -165 -31 -16 5 -17 10 -9 45 15 60 67
103 179 150 55 23 102 46 105 51 8 14 24 10 24 -6z m-568 -78 c94 -54 147
-121 148 -184 0 -21 -5 -23 -52 -23 -75 0 -127 17 -164 54 -37 37 -64 116 -64
188 l0 49 43 -29 c23 -15 63 -40 89 -55z m-3507 -184 c-13 -35 -35 -128 -35
-150 0 -31 -38 -53 -104 -60 -54 -6 -56 -5 -56 18 1 33 33 100 61 126 26 23
119 81 133 82 4 1 5 -7 1 -16z m3454 -17 c92 -56 131 -109 131 -175 0 -28 0
-28 -47 -20 -94 15 -98 18 -120 111 -11 46 -24 91 -28 101 -10 24 0 22 64 -17z
m-3593 -36 c-42 -37 -66 -86 -66 -136 0 -22 -4 -34 -9 -28 -8 8 -62 163 -58
165 1 1 36 7 77 14 41 6 79 13 83 14 4 0 -8 -13 -27 -29z m3735 14 c38 -4 69
-10 69 -13 0 -3 -12 -42 -27 -86 l-27 -80 -9 35 c-18 69 -30 90 -70 127 -23
20 -33 34 -23 30 10 -4 49 -10 87 -13z m-3984 -30 c57 -16 115 -60 139 -105
20 -41 18 -49 -17 -49 -24 0 -50 18 -131 91 -107 98 -108 96 9 63z m4211 -32
c-119 -111 -134 -122 -167 -122 -29 0 -32 2 -25 23 10 32 41 73 72 95 25 19
141 60 170 61 7 1 -16 -25 -50 -57z m-3619 -135 c1 -51 -4 -78 -21 -110 -18
-34 -23 -38 -26 -22 -7 34 5 179 18 210 11 28 13 28 20 10 5 -11 9 -51 9 -88z
m3010 84 c18 -33 31 -145 22 -191 l-8 -45 -21 45 c-22 46 -27 104 -16 173 7
42 10 44 23 18z m-3259 -85 c0 -19 -6 -41 -14 -49 -8 -8 -11 -18 -6 -23 4 -5
11 -54 14 -109 l7 -100 -36 40 c-32 36 -125 210 -125 235 0 5 12 10 28 11 15
0 47 6 72 13 25 8 48 14 53 15 4 0 7 -14 7 -33z m3578 11 c34 -6 62 -15 62
-20 0 -26 -79 -179 -116 -224 l-42 -53 5 98 c3 53 10 103 16 110 7 9 7 16 0
20 -5 4 -13 26 -16 50 -5 38 -3 43 11 37 10 -4 45 -12 80 -18z m-3753 -62 l16
-40 -34 40 c-23 27 -31 42 -24 47 15 9 23 1 42 -47z m3880 45 c3 -5 -10 -26
-30 -47 -22 -23 -32 -30 -26 -16 6 12 15 33 21 47 10 27 24 33 35 16z m425 5
c0 -28 -84 -121 -132 -146 -63 -33 -65 -21 -6 46 57 64 138 123 138 100z
m-4505 -25 c21 -23 12 -54 -30 -105 l-24 -30 -1 27 c0 38 20 128 29 128 4 0
16 -9 26 -20z m4281 -66 c7 -55 6 -58 -10 -45 -10 8 -27 33 -38 54 l-20 40 23
18 c30 22 36 13 45 -67z m-4221 -60 c-10 -28 -18 -82 -19 -126 l-1 -76 -47 91
-47 92 23 25 c13 14 31 40 41 59 l17 34 25 -25 25 -25 -17 -49z m4155 82 c0
-8 16 -35 35 -60 l35 -46 -47 -95 -48 -95 0 88 c-1 55 -7 103 -18 132 -16 43
-16 45 5 67 25 26 38 29 38 9z m-3484 -77 c-7 -69 -33 -135 -65 -163 -21 -19
-21 -19 -21 0 0 58 64 224 87 224 3 0 3 -27 -1 -61z m2814 -11 c16 -35 32 -88
35 -118 l6 -55 -29 33 c-37 42 -59 121 -53 190 2 24 12 11 41 -50z m-3300
-113 c69 -75 130 -146 137 -158 6 -12 24 -105 39 -207 14 -102 29 -191 31
-197 8 -20 -55 -16 -102 6 -22 10 -54 30 -72 45 l-32 27 25 39 c16 23 27 58
31 92 5 55 -12 168 -26 168 -18 0 -45 -117 -45 -192 0 -42 -3 -75 -7 -72 -4 2
-19 24 -33 47 l-25 44 25 49 c23 44 25 58 21 130 -3 45 -9 90 -15 100 -10 17
-13 15 -28 -21 -10 -22 -20 -78 -23 -125 l-6 -85 -37 83 -38 83 21 40 c28 56
34 122 16 196 -13 57 -13 61 2 54 9 -5 72 -71 141 -146z m3933 51 c7 -41 7
-80 1 -117 l-10 -54 -18 33 c-20 38 -25 101 -14 177 6 41 5 45 -3 20 -20 -58
-15 -156 10 -206 l24 -47 -34 -73 c-18 -41 -35 -77 -38 -81 -3 -4 -6 23 -7 60
-1 68 -28 172 -44 172 -11 0 -25 -68 -16 -77 3 -4 6 3 6 15 0 11 4 23 9 26 23
14 49 -154 33 -209 l-9 -30 -17 33 c-10 19 -21 61 -26 95 l-9 62 3 -61 c1 -39
10 -75 24 -103 24 -45 22 -53 -25 -122 -18 -27 -18 -27 -18 60 0 81 -13 147
-34 181 -14 20 -19 11 -26 -40 -5 -47 -1 -45 10 5 l7 30 15 -40 c19 -54 29
-177 15 -201 -10 -17 -12 -15 -26 18 -9 21 -20 61 -26 90 l-9 53 4 -58 c2 -37
13 -74 28 -102 l25 -43 -27 -26 c-33 -32 -107 -65 -145 -66 -33 0 -34 -30 8
253 27 182 18 166 210 365 105 108 109 112 123 92 8 -12 20 -49 26 -84z
m-3632 54 c37 -33 41 -39 23 -40 -12 0 -35 5 -53 11 -25 9 -31 16 -31 40 0 16
4 29 9 29 5 0 28 -18 52 -40z m3199 10 c0 -33 -27 -50 -78 -50 -26 1 -26 2 18
40 25 22 48 40 53 40 4 0 7 -14 7 -30z m-3644 -79 c6 -57 -12 -131 -33 -138
-25 -9 -21 190 5 231 8 14 22 -31 28 -93z m451 21 c45 -7 47 -9 64 -57 28 -79
25 -92 -13 -55 -18 17 -52 43 -75 57 -32 18 -43 31 -43 50 0 14 4 22 11 18 5
-4 31 -10 56 -13z m3193 -10 c0 -22 -7 -32 -35 -45 -19 -9 -52 -33 -75 -53
-22 -20 -40 -32 -40 -27 0 5 9 37 21 71 20 58 23 62 52 63 18 0 41 4 52 9 11
5 21 9 23 9 1 1 2 -12 2 -27z m-3855 -17 c54 -31 125 -105 102 -105 -36 0 -93
32 -139 78 -27 25 -48 50 -48 55 0 12 37 -1 85 -28z m4510 -10 c-37 -45 -122
-95 -159 -95 -47 1 135 140 182 140 8 0 -3 -20 -23 -45z m-3854 -44 c24 -15
57 -42 73 -60 26 -27 27 -31 10 -31 -24 0 -103 36 -126 57 -18 16 -25 63 -10
63 4 0 28 -13 53 -29z m3209 10 c0 -36 -103 -101 -161 -101 -18 0 37 55 90 91
52 34 71 37 71 10z m-2960 -66 c-14 -62 -31 -93 -74 -134 -31 -30 -36 -32 -36
-15 0 44 101 217 117 200 2 -2 -1 -25 -7 -51z m2684 3 c19 -29 44 -79 55 -111
18 -52 18 -56 3 -48 -45 24 -92 104 -106 179 -8 46 6 40 48 -20z m-2881 -39
c43 -12 47 -16 53 -49 3 -19 12 -55 20 -79 8 -25 14 -45 14 -46 0 -1 -25 11
-56 27 -31 15 -65 28 -74 28 -10 0 -29 15 -44 34 -21 28 -26 46 -26 91 l0 56
33 -25 c18 -14 54 -31 80 -37z m3149 4 c-4 -64 -38 -123 -71 -123 -11 0 -45
-14 -76 -30 -46 -24 -56 -27 -50 -13 12 29 35 116 35 134 0 12 12 19 40 24 22
4 59 20 82 36 24 16 43 29 43 29 0 0 -2 -26 -3 -57z m-3772 -43 c41 -32 93
-90 87 -96 -1 -2 -20 2 -41 8 -44 14 -113 72 -139 117 l-19 32 37 -15 c20 -9
54 -29 75 -46z m224 29 c15 -75 1 -165 -30 -199 -12 -12 -14 -2 -14 69 0 80
15 161 30 161 4 0 10 -14 14 -31z m4148 -7 c-36 -49 -99 -100 -138 -111 -21
-6 -40 -9 -42 -6 -9 9 107 112 149 133 23 12 45 20 47 17 2 -2 -5 -17 -16 -33z
m-4058 -119 c11 -67 6 -117 -16 -163 l-21 -45 -8 35 c-13 53 10 210 30 210 5
0 11 -17 15 -37z m580 -100 l-67 -128 75 73 c42 39 79 72 82 72 4 0 -20 -39
-52 -87 -32 -49 -62 -95 -67 -103 -5 -8 31 21 80 65 97 88 98 87 13 -32 -32
-46 -55 -83 -52 -83 3 0 42 28 87 62 45 34 89 66 97 72 17 12 -37 -58 -113
-146 -27 -32 -46 -58 -42 -58 3 0 48 29 98 63 51 35 98 67 106 72 7 4 -31 -47
-85 -114 -83 -103 -101 -120 -119 -113 -11 4 -52 7 -91 7 -62 0 -75 -3 -107
-28 -46 -35 -59 -60 -59 -108 1 -41 20 -84 61 -138 l26 -34 -70 5 c-42 3 -86
13 -110 26 -54 27 -135 114 -135 145 0 16 80 121 253 330 138 169 253 307 255
307 1 0 -28 -57 -64 -127z m2675 -182 c172 -209 251 -312 251 -328 0 -31 -81
-118 -135 -145 -24 -13 -68 -23 -110 -26 l-70 -5 26 34 c43 56 59 96 59 145 0
42 -4 51 -40 85 -24 23 -54 41 -75 45 -37 7 -119 1 -145 -10 -11 -5 -43 28
-114 115 -54 67 -92 118 -85 114 8 -5 55 -37 106 -72 50 -34 94 -63 98 -63 3
0 -27 39 -67 88 -40 48 -80 96 -88 107 -18 23 -24 28 97 -63 45 -34 84 -62 87
-62 3 0 -20 37 -52 83 -80 112 -82 119 -26 67 144 -133 143 -133 52 3 -32 48
-56 87 -52 87 3 0 40 -33 82 -72 l75 -73 -68 130 c-37 72 -65 128 -62 125 3
-3 118 -142 256 -309z m-2891 246 c29 -18 61 -41 70 -51 16 -18 16 -19 -28
-12 -56 9 -95 31 -129 75 l-26 34 30 -7 c17 -4 54 -22 83 -39z m3014 11 c-24
-39 -70 -65 -132 -73 l-45 -6 33 29 c34 30 127 81 150 82 10 0 9 -9 -6 -32z
m72 -65 c-11 -121 -35 -348 -38 -351 -2 -1 -35 36 -75 82 l-71 85 90 121 c50
66 93 120 95 120 2 0 1 -26 -1 -57z m-3160 -52 c42 -55 79 -106 82 -115 4 -9
-19 -45 -62 -95 -37 -45 -68 -80 -70 -79 -1 2 -9 72 -18 156 -16 149 -20 232
-12 232 2 0 38 -45 80 -99z m-526 65 c20 -13 52 -40 71 -60 19 -19 39 -32 45
-29 6 3 8 2 3 -2 -4 -5 0 -19 8 -32 19 -28 7 -29 -44 -4 -41 22 -92 74 -116
121 -19 36 -15 37 33 6z m4149 -25 c-35 -52 -75 -90 -114 -107 -45 -20 -60
-18 -39 5 9 10 16 22 14 27 -2 5 0 9 4 9 4 0 24 16 45 37 40 38 104 80 112 73
2 -3 -8 -22 -22 -44z m-3495 -8 c65 -8 72 -39 20 -86 -19 -18 -21 -17 -68 44
-42 55 -45 62 -23 55 13 -3 45 -9 71 -13z m2878 -25 c-17 -24 -39 -54 -49 -67
l-19 -25 -26 30 c-28 32 -33 58 -13 71 11 7 94 28 125 32 8 0 0 -17 -18 -41z
m-3300 -160 l65 -32 -45 -4 c-60 -5 -107 11 -150 48 l-35 31 50 -5 c27 -4 79
-21 115 -38z m3804 21 c-29 -33 -93 -59 -146 -59 -27 0 -48 4 -48 9 0 8 98 55
135 64 11 3 33 5 49 6 29 1 29 1 10 -20z m-3682 -74 c53 -8 55 -12 64 -98 6
-57 4 -64 -17 -83 l-24 -21 -106 106 -106 106 71 -1 c39 -1 92 -5 118 -9z
m3498 -99 l-109 -110 -22 19 c-19 18 -20 27 -14 80 11 100 11 101 63 111 26 5
80 9 119 9 l73 0 -110 -109z m-1140 50 c167 -17 444 -54 473 -62 9 -3 22 -14
28 -26 9 -16 7 -24 -9 -41 -70 -78 -81 -219 -26 -361 4 -11 -8 -11 -73 4 -43
10 -108 24 -144 30 l-66 12 19 95 c11 52 16 99 11 103 -11 12 -293 66 -439 85
-351 45 -760 36 -1074 -26 -127 -24 -310 -71 -310 -80 0 -4 11 -43 25 -86 13
-43 21 -80 17 -84 -9 -7 -193 -41 -198 -37 -2 2 4 26 12 53 30 98 9 230 -48
292 -26 28 -11 59 34 67 111 19 497 61 703 76 191 13 885 4 1065 -14z m-468
-156 c84 -6 216 -20 293 -31 139 -20 363 -64 372 -73 5 -5 -74 -396 -81 -403
-2 -2 -56 12 -120 32 -65 19 -119 35 -120 35 -2 0 9 46 25 103 33 116 35 137
15 137 -15 0 -21 -16 -56 -145 -12 -44 -23 -81 -24 -82 -1 -1 -50 6 -109 17
-367 66 -719 43 -1090 -71 -55 -17 -101 -28 -104 -26 -11 12 -121 383 -115
388 13 11 164 48 302 73 273 49 536 64 812 46z"/>
<path d="M4506 3004 c2 -70 6 -130 10 -133 9 -9 34 30 34 54 0 25 37 68 53 62
7 -2 14 -28 17 -58 4 -39 9 -54 20 -54 20 0 36 98 22 130 -17 36 -50 38 -83 5
l-28 -28 -6 32 c-3 17 -6 49 -7 71 -2 28 -8 41 -20 43 -14 3 -16 -10 -12 -124z"/>
<path d="M4200 3108 c0 -7 6 -34 14 -59 8 -25 17 -76 21 -113 6 -54 11 -66 24
-64 11 2 17 16 19 48 6 85 45 96 58 18 6 -37 14 -53 24 -53 11 0 16 13 18 50
4 94 -41 133 -89 76 l-27 -32 -7 47 c-9 65 -22 94 -40 94 -8 0 -15 -6 -15 -12z"/>
<path d="M4090 3067 c0 -48 22 -192 31 -202 28 -29 30 77 3 203 -6 30 -34 29
-34 -1z"/>
<path d="M4157 3054 c-14 -15 -6 -34 14 -34 14 0 19 5 17 17 -3 18 -20 27 -31
17z"/>
<path d="M4718 3034 c-16 -15 -7 -23 29 -26 55 -4 57 -33 3 -41 -49 -6 -70
-22 -70 -52 0 -33 23 -47 77 -49 47 -1 47 -1 59 39 17 55 17 100 -1 115 -17
14 -87 25 -97 14z m62 -102 c0 -10 -5 -23 -12 -30 -7 -7 -20 -12 -30 -12 -23
0 -24 36 0 49 26 16 42 13 42 -7z"/>
<path d="M5072 3014 c4 -21 22 -23 26 -1 2 10 -3 17 -13 17 -10 0 -15 -6 -13
-16z"/>
<path d="M4034 3005 c-4 -9 -1 -35 5 -60 15 -59 14 -65 -8 -65 -25 0 -35 15
-51 73 -12 43 -31 60 -45 38 -5 -10 -2 -20 31 -99 21 -51 51 -67 89 -50 40 18
42 47 9 161 -7 21 -23 22 -30 2z"/>
<path d="M4875 3008 c-3 -7 -6 -44 -7 -82 -4 -83 12 -96 40 -34 23 52 45 72
80 73 39 0 35 29 -4 33 -20 2 -36 -4 -49 -18 -25 -28 -35 -25 -35 10 0 30 -17
41 -25 18z"/>
<path d="M4166 2992 c-8 -13 5 -112 16 -118 21 -13 30 14 21 67 -7 49 -24 72
-37 51z"/>
<path d="M3785 2963 c-58 -31 -66 -58 -39 -136 27 -79 52 -57 33 29 -11 47
-10 57 1 64 23 14 38 -7 45 -61 4 -29 13 -53 21 -56 25 -9 27 5 12 60 -9 30
-12 60 -8 67 14 22 37 3 45 -37 9 -50 22 -73 41 -73 17 0 17 3 -7 92 -5 20
-16 44 -25 53 -20 19 -81 19 -119 -2z"/>
<path d="M5125 2960 c-3 -5 7 -12 22 -16 48 -10 53 -13 53 -29 0 -11 -12 -15
-48 -15 -53 0 -72 -12 -72 -47 0 -28 33 -50 84 -55 37 -3 39 -2 57 42 25 62
24 95 -3 114 -25 18 -83 21 -93 6z m58 -97 c-15 -43 -48 -58 -59 -28 -9 21 14
45 42 45 18 0 22 -4 17 -17z"/>
<path d="M3480 5385 c0 -3 36 -42 79 -86 144 -143 243 -320 272 -483 19 -113
7 -302 -28 -421 -17 -55 -39 -123 -51 -151 l-21 -51 127 -6 c70 -4 175 -7 233
-7 58 0 161 -3 227 -7 117 -6 122 -7 122 -28 0 -18 -15 -30 -67 -58 -73 -38
-161 -67 -202 -67 -38 0 -50 -12 -44 -43 6 -32 16 -33 98 -12 73 19 169 63
232 106 l47 32 35 -21 c130 -80 298 -143 337 -128 8 3 14 17 14 30 0 20 -6 27
-27 31 -153 32 -276 86 -281 125 l-4 23 139 -6 c76 -4 255 -14 399 -23 143
-10 277 -14 298 -10 50 10 95 52 106 101 6 22 7 71 4 109 -6 55 -12 75 -33 97
-18 20 -314 165 -1001 489 -536 253 -982 463 -992 466 -10 3 -18 3 -18 -1z
m1030 -492 c930 -440 961 -455 980 -478 8 -10 15 -49 17 -98 5 -92 -12 -141
-57 -165 -29 -15 -170 -12 -585 13 -137 8 -258 15 -267 15 -15 0 -18 10 -18
64 0 63 -1 65 -27 68 -28 3 -28 3 -31 91 -4 115 -22 113 -22 -3 l0 -90 -30 0
-30 0 0 -61 0 -60 -337 7 c-186 3 -339 8 -341 9 -2 2 13 51 32 109 128 381 67
684 -194 969 l-62 68 73 -34 c41 -19 445 -210 899 -424z"/>
<path d="M4460 3998 c-73 -49 -182 -98 -248 -111 l-62 -13 29 -59 c17 -33 48
-79 71 -102 l41 -43 72 37 c61 31 82 37 137 38 56 0 75 -5 138 -37 40 -21 79
-35 87 -32 22 9 82 86 110 142 30 61 31 62 3 62 -57 0 -223 71 -295 126 -17
13 -33 24 -35 23 -2 0 -23 -14 -48 -31z"/>
<path d="M4435 3717 c-67 -23 -128 -58 -118 -68 6 -6 32 1 69 18 80 38 158 38
231 0 57 -29 73 -33 73 -16 0 16 -127 71 -173 75 -23 2 -60 -2 -82 -9z"/>
<path d="M4435 3667 c-22 -8 -51 -19 -64 -26 -39 -21 -2 -35 43 -16 46 19 122
19 177 0 62 -22 77 -2 17 25 -61 27 -124 33 -173 17z"/>
<path d="M4428 3613 c-10 -2 -18 -9 -18 -14 0 -5 41 -9 90 -9 86 0 116 11 68
24 -26 6 -114 6 -140 -1z"/>
</g>
</svg>
